<svg width="108" height="108" viewBox="0 0 108 108" fill="none" xmlns="http://www.w3.org/2000/svg">
<path d="M7.39136 0.84375L15.8753 96.0888L53.9436 106.703L92.1182 96.05L100.609 0.84375H7.39136ZM82.9838 22.6648L80.1597 54.394L80.1682 54.5653L80.1564 54.9593V54.956L78.1499 77.1415L77.9289 79.1125L54.0001 85.7309V85.7318L53.9815 85.7478L30.0941 79.0923L28.4767 60.75H40.1905L41.0215 70.0768L54.0035 73.5952L54.0001 73.602V73.6003L67.0301 70.0321L68.4071 54.8438H41.1684L40.9346 52.2762L40.4022 46.2611L40.123 43.0312H69.4424L70.5089 31.2188H25.8526L25.6189 28.6529L25.0873 22.6361L24.8072 19.4062H83.263L82.9838 22.6648V22.6648Z" fill="#1572B6"/>
</svg>
