<svg width="108" height="109" viewBox="0 0 108 109" fill="none" xmlns="http://www.w3.org/2000/svg">
<path d="M38.3906 108.844C48.4312 108.844 56.5312 100.744 56.5312 90.7031V72.5625H38.3906C28.35 72.5625 20.25 80.6625 20.25 90.7031C20.25 100.744 28.35 108.844 38.3906 108.844Z" fill="#0ACF83"/>
<path d="M20.25 54.4219C20.25 44.3813 28.35 36.2812 38.3906 36.2812H56.5312V72.5625H38.3906C28.35 72.5625 20.25 64.4625 20.25 54.4219Z" fill="#A259FF"/>
<path d="M20.25 18.1406C20.25 8.1 28.35 0 38.3906 0H56.5312V36.2812H38.3906C28.35 36.2812 20.25 28.1812 20.25 18.1406Z" fill="#F24E1E"/>
<path d="M56.5312 0H74.6719C84.7125 0 92.8125 8.1 92.8125 18.1406C92.8125 28.1812 84.7125 36.2812 74.6719 36.2812H56.5312V0Z" fill="#FF7262"/>
<path d="M92.8125 54.4219C92.8125 64.4625 84.7125 72.5625 74.6719 72.5625C64.6313 72.5625 56.5312 64.4625 56.5312 54.4219C56.5312 44.3813 64.6313 36.2812 74.6719 36.2812C84.7125 36.2812 92.8125 44.3813 92.8125 54.4219Z" fill="#1ABCFE"/>
</svg>
