<svg width="108" height="108" viewBox="0 0 108 108" fill="none" xmlns="http://www.w3.org/2000/svg">
<path d="M23.0766 67.9387L32.0879 10.1925C32.4001 8.22655 35.041 7.75405 35.9691 9.51749L45.6554 27.6412L23.0766 67.9387V67.9387ZM87.151 81.9703L78.5532 28.7803C78.2916 27.1266 76.2244 26.4516 75.0348 27.6412L20.8491 81.9703L50.836 98.8031C51.764 99.3137 52.8059 99.5814 53.8651 99.5814C54.9242 99.5814 55.9662 99.3137 56.8941 98.8031L87.151 81.9703V81.9703ZM62.8088 35.5641L55.8647 22.3594C55.0885 20.8575 52.9622 20.8575 52.186 22.3594L21.6844 76.739L62.8088 35.5641V35.5641Z" fill="#F58220"/>
</svg>
