<svg width="108" height="108" viewBox="0 0 108 108" fill="none" xmlns="http://www.w3.org/2000/svg">
<path d="M105.251 49.2565L58.746 2.75403C56.0696 0.0759678 51.726 0.0759678 49.0454 2.75403L39.3904 12.4116L51.64 24.6612C54.4876 23.7001 57.7512 24.3447 60.0201 26.6136C61.1013 27.6958 61.8562 29.0605 62.1983 30.5515C62.5405 32.0426 62.4561 33.5998 61.9548 35.0452L73.7605 46.8526C76.6166 45.868 79.9132 46.5042 82.193 48.789C85.3824 51.9759 85.3824 57.1422 82.193 60.3307C81.4351 61.089 80.5352 61.6905 79.5447 62.1009C78.5542 62.5113 77.4926 62.7226 76.4205 62.7226C75.3483 62.7226 74.2867 62.5113 73.2962 62.1009C72.3058 61.6905 71.4059 61.089 70.648 60.3307C69.5092 59.1913 68.733 57.7404 68.4169 56.1608C68.1009 54.5812 68.2592 52.9434 68.8719 51.4536L57.8626 40.4435L57.8609 69.4187C58.6597 69.8121 59.389 70.333 60.0201 70.9611C63.2086 74.1479 63.2086 79.3125 60.0201 82.5061C56.8315 85.693 51.6636 85.693 48.4784 82.5061C45.2907 79.3134 45.0292 74.1488 48.216 70.9611C49.0041 70.1739 49.7812 69.579 50.6249 69.1808V39.9372C49.7812 39.539 49.0049 38.9484 48.2152 38.1561C45.8012 35.743 45.3498 32.1992 46.5884 29.2326L34.5793 17.156L2.72439 49.0413C0.0454887 51.7219 0.0623637 56.0655 2.74127 58.7444L49.2538 105.247C51.931 107.925 56.278 107.925 58.9595 105.247L105.248 58.9604C107.927 56.2807 107.929 51.9345 105.251 49.2565V49.2565Z" fill="#F34F29"/>
</svg>
