<svg width="109" height="108" viewBox="0 0 109 108" fill="none" xmlns="http://www.w3.org/2000/svg">
<path d="M1.19897 1.18799H107.801V106.813H1.19897V1.18799Z" fill="#F0DB4F"/>
<path d="M99.0767 81.621C98.2958 76.8023 95.1246 72.7549 85.731 68.9808C82.4678 67.4949 78.8299 66.431 77.7459 63.9807C77.361 62.5548 77.3099 61.7515 77.5534 60.8884C78.2526 58.0871 81.6273 57.2138 84.3021 58.0171C86.0248 58.5891 87.6555 59.9045 88.6391 62.003C93.2392 59.0515 93.2298 59.0709 96.4419 57.0426C95.2659 55.2361 94.6383 54.4025 93.8685 53.6296C91.1018 50.5676 87.3319 48.9906 81.3029 49.1113L78.1623 49.5138C75.1529 50.2672 72.2848 51.8324 70.603 53.9308C65.5566 59.6042 66.9958 69.5334 73.1364 73.6197C79.1859 78.1186 88.0728 79.142 89.2079 83.349C90.3124 88.4992 85.3878 90.1665 80.493 89.5742C76.8858 88.8308 74.8795 87.0142 72.7106 83.7109C68.7185 86 68.7185 86 64.6139 88.3389C65.5873 90.4474 66.61 91.4017 68.2416 93.2284C75.9636 100.989 95.2872 100.608 98.7531 88.8612C98.8936 88.4579 99.8269 85.768 99.0767 81.621V81.621ZM59.1512 49.7331H49.1802L49.1393 75.2751C49.1393 80.7072 49.4229 85.687 48.5313 87.2134C47.0726 90.2154 43.2925 89.8433 41.5698 89.2611C39.8164 88.4073 38.9249 87.1931 37.8919 85.4769C37.6083 84.9842 37.3954 84.6028 37.3239 84.5733L29.217 89.4923C30.5651 92.2337 32.5509 94.613 35.0945 96.1588C38.8942 98.4184 44.001 99.1111 49.342 97.8961C52.8181 96.8929 55.8173 94.8147 57.3876 91.6515C59.6578 87.5045 59.1707 82.485 59.1503 76.9331C59.2014 67.8755 59.1512 58.8195 59.1512 49.7331V49.7331Z" fill="#323330"/>
</svg>
