<svg width="108" height="108" viewBox="0 0 108 108" fill="none" xmlns="http://www.w3.org/2000/svg">
<path d="M95.1505 25.5943L57.9437 3.99005C55.5972 2.65355 52.542 2.65355 50.177 3.99005L12.5727 25.5943C10.1512 26.9873 8.4375 29.6055 8.4375 32.4059V75.5569C8.4375 78.3573 10.1959 80.9763 12.6174 82.377L22.5526 88.02C27.3012 90.3588 28.9794 90.3588 31.1403 90.3588C38.1713 90.3588 42.1875 86.1072 42.1875 78.6915V36.0905C42.1875 35.4889 41.8745 34.5937 41.2838 34.5937H36.5394C35.9387 34.5937 34.5938 35.4889 34.5938 36.0897V78.6906C34.5938 81.9779 31.6204 85.2491 26.0634 82.4706L15.7975 76.5534C15.4398 76.3593 15.1875 75.9687 15.1875 75.5569V32.4059C15.1875 31.9992 15.6558 31.5908 16.0161 31.3824L53.4988 9.8153C53.849 9.61701 54.3637 9.61701 54.713 9.8153L91.7384 31.3773C92.0928 31.5908 91.9679 31.9865 91.9679 32.4059V75.5569C91.9679 75.9687 92.1223 76.3695 91.7722 76.5677L54.5746 98.1475C54.2557 98.339 53.8599 98.339 53.5106 98.1475L43.9703 92.453C43.6826 92.2859 43.3409 92.226 43.065 92.3805C40.4106 93.8849 39.9212 94.0848 37.4313 94.948C36.8187 95.1615 35.9151 95.5319 37.7772 96.5756L50.263 103.962C51.4551 104.65 52.8073 105.013 54.1839 105.013C55.5694 105.013 56.9261 104.654 58.1217 103.962L95.1497 82.377C97.5712 80.9662 98.7188 78.3573 98.7188 75.5569V32.4059C98.7188 29.6055 97.5713 26.994 95.1505 25.5943V25.5943ZM65.7366 68.7192C55.8428 68.7192 53.6633 65.9896 52.9369 61.0697C52.8525 60.5399 52.4028 59.9062 51.8636 59.9062H47.0281C46.4299 59.9062 45.9489 60.6318 45.9489 61.2275C45.9489 67.527 49.3737 75.1595 65.7374 75.1595C77.5828 75.1595 84.3742 70.5569 84.3742 62.4113C84.3742 54.3349 78.9176 52.2154 67.43 50.695C55.8183 49.1602 54.6387 48.3848 54.6387 45.6645C54.6387 43.4219 55.6377 40.4308 64.2355 40.4308C71.9179 40.4308 74.7495 42.0795 75.9147 47.2575C76.0143 47.7444 76.4589 48.0937 76.961 48.0937H81.8159C82.1146 48.0937 82.3998 47.973 82.609 47.7596C82.8115 47.5301 82.9187 47.2424 82.8917 46.9335C82.1399 38.0168 76.2159 33.8613 64.2347 33.8613C53.5773 33.8613 47.2196 38.3619 47.2196 45.9059C47.2196 54.0885 53.5452 56.3498 63.7757 57.3615C76.0143 58.5613 76.966 60.35 76.966 62.7572C76.966 66.938 73.6096 68.7192 65.7366 68.7192Z" fill="#83CD29"/>
</svg>
