<svg width="107" height="108" viewBox="0 0 107 108" fill="none" xmlns="http://www.w3.org/2000/svg">
<path d="M53.5001 63.6187C58.7632 63.6187 63.0298 59.3123 63.0298 54C63.0298 48.6877 58.7632 44.3812 53.5001 44.3812C48.237 44.3812 43.9705 48.6877 43.9705 54C43.9705 59.3123 48.237 63.6187 53.5001 63.6187Z" fill="#61DAFB"/>
<path d="M89.6962 38.1375C87.8571 37.4625 85.9345 36.7875 83.9282 36.1969C84.4298 34.1719 84.8478 32.1468 85.1821 30.2062C86.9376 19.0687 85.0149 11.2219 79.6649 8.18435C78.0767 7.25623 76.3212 6.83435 74.3149 6.83435C68.4634 6.83435 61.0235 11.2219 53.5001 18.5625C45.9767 11.2219 38.5368 6.83435 32.6853 6.83435C30.679 6.83435 28.9235 7.25623 27.3353 8.18435C21.9853 11.3062 20.0626 19.1531 21.8181 30.2062C22.1524 32.1468 22.5704 34.1719 23.072 36.1969C21.0657 36.7875 19.1431 37.3781 17.304 38.1375C6.85479 42.1875 1.17041 47.7562 1.17041 54C1.17041 60.2437 6.93838 65.8125 17.304 69.8625C19.1431 70.5375 21.0657 71.2125 23.072 71.8031C22.5704 73.8281 22.1524 75.8531 21.8181 77.7937C20.0626 88.9312 21.9853 96.7781 27.3353 99.8156C28.9235 100.744 30.679 101.166 32.6853 101.166C38.6204 101.166 46.0603 96.7781 53.5001 89.4375C61.0235 96.7781 68.4634 101.166 74.3149 101.166C76.3212 101.166 78.0767 100.744 79.6649 99.8156C85.0149 96.6937 86.9376 88.8468 85.1821 77.7937C84.8478 75.8531 84.4298 73.8281 83.9282 71.8031C85.9345 71.2125 87.8571 70.6219 89.6962 69.8625C100.145 65.8125 105.83 60.2437 105.83 54C105.83 47.7562 100.145 42.1875 89.6962 38.1375V38.1375ZM77.3243 12.4031C80.7517 14.4281 81.922 20.6719 80.5009 29.5312C80.2501 31.3031 79.8321 33.1594 79.3306 35.1C74.9837 34.0875 70.386 33.4125 65.5376 32.9906C62.6954 28.9406 59.7696 25.3125 56.8438 22.0219C63.0298 15.8625 69.2993 11.6437 74.3985 11.6437C75.4853 11.6437 76.4884 11.8969 77.3243 12.4031V12.4031ZM67.9618 62.4375C66.4571 65.1375 64.7017 67.8375 62.8626 70.5375C59.7696 70.7906 56.6767 70.875 53.5001 70.875C50.2399 70.875 47.147 70.7906 44.1376 70.5375C42.2985 67.8375 40.6267 65.1375 39.122 62.4375C37.5337 59.6531 36.029 56.7844 34.6915 54C36.029 51.2156 37.5337 48.3469 39.122 45.5625C40.6267 42.8625 42.3821 40.1625 44.2212 37.4625C47.3142 37.2094 50.4071 37.125 53.5837 37.125C56.8438 37.125 59.9368 37.2094 62.9462 37.4625C64.7853 40.1625 66.4571 42.8625 67.9618 45.5625C69.5501 48.3469 71.0548 51.2156 72.3923 54C70.9712 56.7844 69.5501 59.5687 67.9618 62.4375ZM74.9001 59.6531C76.154 62.6062 77.1571 65.475 78.0767 68.3437C75.2345 69.0187 72.2251 69.525 69.0485 69.9469C70.0517 68.3437 71.1384 66.6562 72.0579 64.8844C73.061 63.1125 73.9806 61.3406 74.9001 59.6531ZM53.5001 82.5187C51.4938 80.325 49.5712 77.9625 47.7321 75.5156C49.6548 75.6 51.5774 75.6843 53.5001 75.6843C55.4228 75.6843 57.3454 75.6 59.2681 75.5156C57.429 77.9625 55.5063 80.325 53.5001 82.5187ZM37.9517 69.8625C34.7751 69.4406 31.7657 68.9344 28.9235 68.2594C29.8431 65.475 30.8462 62.5219 32.1001 59.5687C33.0196 61.2562 33.9392 63.0281 34.9423 64.7156C35.9454 66.5718 36.9485 68.175 37.9517 69.8625V69.8625ZM32.1001 48.3468C30.8462 45.3937 29.8431 42.525 28.9235 39.6562C31.7657 38.9812 34.7751 38.475 37.9517 38.0531C36.9485 39.6562 35.8618 41.3437 34.9423 43.1156C33.9392 44.8875 33.0196 46.6593 32.1001 48.3468V48.3468ZM53.5001 25.4812C55.5063 27.675 57.429 30.0375 59.2681 32.4844C57.3454 32.4 55.4228 32.3156 53.5001 32.3156C51.5774 32.3156 49.6548 32.4 47.7321 32.4844C49.5712 30.0375 51.4938 27.675 53.5001 25.4812ZM72.0579 43.2L69.0485 38.1375C72.2251 38.5593 75.2345 39.0656 78.0767 39.7406C77.1571 42.525 76.154 45.4781 74.9001 48.4312C73.9806 46.6594 73.061 44.8875 72.0579 43.2ZM26.4993 29.5312C25.0782 20.6719 26.2485 14.4281 29.6759 12.4031C30.5118 11.8969 31.5149 11.6437 32.6017 11.6437C37.6173 11.6437 43.8868 15.7781 50.1563 22.0219C47.2306 25.2281 44.3048 28.9406 41.4626 32.9906C36.6142 33.4125 32.0165 34.1719 27.6696 35.1C27.1681 33.1594 26.8337 31.3031 26.4993 29.5312V29.5312ZM5.85166 54C5.85166 50.0344 10.6165 45.8156 18.9759 42.6937C20.6478 42.0187 22.4868 41.4281 24.3259 40.9219C25.6634 45.1406 27.3353 49.6125 29.3415 54.0844C27.3353 58.5562 25.5798 62.9437 24.3259 67.1625C12.7899 63.7875 5.85166 58.725 5.85166 54ZM29.6759 95.5969C26.2485 93.5719 25.0782 87.3281 26.4993 78.4687C26.7501 76.6969 27.1681 74.8406 27.6696 72.9C32.0165 73.9125 36.6142 74.5875 41.4626 75.0094C44.3048 79.0594 47.2306 82.6875 50.1563 85.9781C43.9704 92.1375 37.7009 96.3562 32.6017 96.3562C31.5149 96.3562 30.5118 96.1031 29.6759 95.5969ZM80.5009 78.4687C81.922 87.3281 80.7517 93.5719 77.3243 95.5969C76.4884 96.1031 75.4853 96.3562 74.3985 96.3562C69.3829 96.3562 63.1134 92.2219 56.8438 85.9781C59.7696 82.7719 62.6954 79.0594 65.5376 75.0094C70.386 74.5875 74.9837 73.8281 79.3306 72.9C79.8321 74.8406 80.1665 76.6969 80.5009 78.4687V78.4687ZM88.0243 65.3062C86.3524 65.9812 84.5134 66.5719 82.6743 67.0781C81.3368 62.8594 79.6649 58.3875 77.6587 53.9156C79.6649 49.4437 81.4204 45.0562 82.6743 40.8375C94.2103 44.2125 101.149 49.275 101.149 54C101.149 57.9656 96.3001 62.1844 88.0243 65.3062Z" fill="#61DAFB"/>
</svg>
