<svg width="108" height="108" viewBox="0 0 108 108" fill="none" xmlns="http://www.w3.org/2000/svg">
<path d="M1.6875 53.9241V106.658H107.156V1.1897H1.6875V53.9241ZM86.6784 49.7053C89.2045 50.2915 91.5004 51.6127 93.2766 53.5022C94.2543 54.5201 95.1044 55.6535 95.8078 56.8772C95.8078 57.0122 91.2516 60.0919 88.4756 61.8131C88.3744 61.8806 87.9694 61.4419 87.5222 60.7753C87.0154 59.9009 86.2954 59.1691 85.4293 58.6483C84.5632 58.1275 83.5793 57.8346 82.5694 57.7969C79.3716 57.5775 77.3128 59.2566 77.3297 62.0156C77.3032 62.7026 77.4605 63.3841 77.7853 63.99C78.4856 65.4497 79.7934 66.3188 83.8941 68.0906C91.4456 71.3391 94.6772 73.4822 96.6853 76.5281C98.9297 79.9031 99.4275 85.3538 97.9088 89.3869C96.2213 93.7744 92.0869 96.7528 86.2397 97.74C83.5691 98.0459 80.8708 98.0175 78.2072 97.6556C74.1421 96.9962 70.3923 95.0607 67.5 92.1291C66.5297 91.0575 64.6397 88.2647 64.7578 88.0622C65.0658 87.8335 65.3901 87.6277 65.7281 87.4463L69.6094 85.2188L72.6384 83.4638L73.2712 84.4003C74.3392 85.928 75.6983 87.2298 77.2706 88.2309C80.6456 90.0028 85.2525 89.7581 87.5306 87.7078C88.2955 86.9565 88.7727 85.9607 88.8791 84.8939C88.9854 83.827 88.7143 82.7566 88.1128 81.8691C87.2691 80.6963 85.5816 79.7091 80.865 77.6503C75.4228 75.3047 73.0772 73.8534 70.9341 71.5416C69.5962 70.016 68.6084 68.2161 68.04 66.2681C67.6161 64.0427 67.5534 61.7635 67.8544 59.5181C68.9766 54.2616 72.9169 50.5913 78.6712 49.5028C81.3362 49.1731 84.0356 49.247 86.6784 49.7222V49.7053ZM61.9228 54.1266V58.4466H48.2287V97.4531H38.5172V58.4381H24.7894V54.2194C24.7525 52.7671 24.792 51.3138 24.9075 49.8656C24.9581 49.7981 33.345 49.7644 43.47 49.7813H61.8722L61.9228 54.1266Z" fill="#007ACC"/>
</svg>
