<svg width="37" height="37" viewBox="0 0 37 37" fill="none" xmlns="http://www.w3.org/2000/svg">
<g clip-path="url(#clip0_68_763)">
<path fill-rule="evenodd" clip-rule="evenodd" d="M18.5003 0.770752C14.1084 0.773031 9.86057 2.32854 6.5163 5.15914C3.17202 7.98974 0.94939 11.9109 0.245837 16.2213C-0.457716 20.5318 0.403676 24.9506 2.67601 28.6875C4.94834 32.4245 8.48342 35.2359 12.6491 36.6191C13.5682 36.7897 13.9143 36.2201 13.9143 35.7357C13.9143 35.2514 13.8959 33.8472 13.8898 32.312C8.74327 33.4238 7.65577 30.1403 7.65577 30.1403C6.81639 28.0081 5.60327 27.4476 5.60327 27.4476C3.92452 26.3084 5.72888 26.3297 5.72888 26.3297C7.58838 26.4607 8.56561 28.2274 8.56561 28.2274C10.2137 31.0388 12.8942 30.2255 13.948 29.7504C14.1135 28.5594 14.5944 27.7491 15.1244 27.2892C11.0133 26.8262 6.69385 25.2484 6.69385 18.1999C6.66837 16.372 7.35057 14.6042 8.59931 13.2624C8.40937 12.7994 7.77524 10.9292 8.78004 8.38879C8.78004 8.38879 10.3332 7.89534 13.8684 10.2743C16.9007 9.44976 20.0999 9.44976 23.1322 10.2743C26.6643 7.89534 28.2144 8.38879 28.2144 8.38879C29.2222 10.9231 28.5881 12.7933 28.3982 13.2624C29.6509 14.6044 30.3345 16.3753 30.3067 18.206C30.3067 25.2697 25.9781 26.8262 21.8608 27.2801C22.5225 27.8527 23.1138 28.9706 23.1138 30.6885C23.1138 33.1497 23.0923 35.1296 23.0923 35.7357C23.0923 36.2262 23.4263 36.7988 24.3637 36.6191C28.5299 35.2357 32.0653 32.4238 34.3376 28.6862C36.6099 24.9487 37.4708 20.5292 36.7665 16.2183C36.0621 11.9074 33.8384 7.9863 30.493 5.15619C27.1476 2.32607 22.8988 0.771586 18.5064 0.770752H18.5003Z" fill="white"/>
<path d="M12.3764 30.7952C12.3764 30.9445 12.2049 31.0724 11.9843 31.0754C11.7637 31.0785 11.583 30.9566 11.583 30.8074C11.583 30.6581 11.7545 30.5302 11.9751 30.5272C12.1957 30.5241 12.3764 30.6429 12.3764 30.7952Z" fill="white"/>
<path d="M13.7855 30.5606C13.8131 30.7099 13.6599 30.8652 13.4394 30.9018C13.2188 30.9383 13.0258 30.85 12.9982 30.7038C12.9707 30.5576 13.13 30.3992 13.3444 30.3596C13.5588 30.32 13.758 30.4114 13.7855 30.5606Z" fill="white"/>
<path d="M10.8627 30.6916C10.8167 30.8348 10.6084 30.8987 10.4001 30.8378C10.1918 30.7769 10.0539 30.6063 10.0938 30.4601C10.1336 30.3139 10.345 30.2469 10.5563 30.3139C10.7677 30.3809 10.9025 30.5424 10.8627 30.6916Z" fill="white"/>
<path d="M9.4754 30.0946C9.37431 30.2073 9.16907 30.1768 9.00058 30.0245C8.83209 29.8722 8.79225 29.6651 8.89335 29.5554C8.99444 29.4458 9.19969 29.4763 9.37431 29.6255C9.54892 29.7748 9.58262 29.9849 9.4754 30.0946V30.0946Z" fill="white"/>
<path d="M8.48584 29.0712C8.37249 29.1504 8.17949 29.0712 8.07227 28.9128C8.04262 28.8844 8.01904 28.8503 8.00293 28.8126C7.98683 28.7749 7.97852 28.7344 7.97852 28.6935C7.97852 28.6525 7.98683 28.612 8.00293 28.5743C8.01904 28.5366 8.04262 28.5026 8.07227 28.4742C8.18561 28.398 8.37862 28.4742 8.48584 28.6295C8.59306 28.7848 8.59612 28.992 8.48584 29.0712V29.0712Z" fill="white"/>
<path d="M7.7568 28.0142C7.69336 28.046 7.62078 28.0548 7.55148 28.0393C7.48219 28.0237 7.42049 27.9847 7.37694 27.9289C7.25747 27.801 7.23295 27.6243 7.32485 27.5451C7.41675 27.4659 7.58219 27.5024 7.70166 27.6304C7.82114 27.7583 7.84871 27.935 7.7568 28.0142Z" fill="white"/>
<path d="M7.00615 27.1827C6.96633 27.2741 6.81928 27.3015 6.69981 27.2375C6.58034 27.1736 6.49151 27.0548 6.53439 26.9604C6.57728 26.8659 6.72126 26.8416 6.84074 26.9055C6.96021 26.9695 7.0521 27.0913 7.00615 27.1827Z" fill="white"/>
</g>
<defs>
<clipPath id="clip0_68_763">
<rect width="37" height="37" fill="white"/>
</clipPath>
</defs>
</svg>
