<svg width="37" height="37" viewBox="0 0 37 37" fill="none" xmlns="http://www.w3.org/2000/svg">
<path d="M18.4999 21.7952C20.3199 21.7952 21.7952 20.3199 21.7952 18.4999C21.7952 16.68 20.3199 15.2046 18.4999 15.2046C16.68 15.2046 15.2046 16.68 15.2046 18.4999C15.2046 20.3199 16.68 21.7952 18.4999 21.7952Z" fill="#61DAFB"/>
<path d="M31.0165 13.0655C30.3806 12.8343 29.7157 12.603 29.022 12.4007C29.1954 11.7069 29.3399 11.0132 29.4556 10.3483C30.0626 6.53271 29.3978 3.84443 27.5478 2.80381C26.9985 2.48584 26.3915 2.34131 25.6978 2.34131C23.6743 2.34131 21.1017 3.84443 18.5001 6.35928C15.8985 3.84443 13.3259 2.34131 11.3024 2.34131C10.6087 2.34131 10.0017 2.48584 9.45244 2.80381C7.60244 3.87334 6.9376 6.56162 7.54463 10.3483C7.66025 11.0132 7.80479 11.7069 7.97822 12.4007C7.28447 12.603 6.61963 12.8054 5.98369 13.0655C2.37041 14.453 0.404785 16.3608 0.404785 18.4999C0.404785 20.639 2.39932 22.5468 5.98369 23.9343C6.61963 24.1655 7.28447 24.3968 7.97822 24.5991C7.80479 25.2929 7.66025 25.9866 7.54463 26.6515C6.9376 30.4671 7.60244 33.1554 9.45244 34.196C10.0017 34.514 10.6087 34.6585 11.3024 34.6585C13.3548 34.6585 15.9274 33.1554 18.5001 30.6405C21.1017 33.1554 23.6743 34.6585 25.6978 34.6585C26.3915 34.6585 26.9985 34.514 27.5478 34.196C29.3978 33.1265 30.0626 30.4382 29.4556 26.6515C29.3399 25.9866 29.1954 25.2929 29.022 24.5991C29.7157 24.3968 30.3806 24.1944 31.0165 23.9343C34.6298 22.5468 36.5954 20.639 36.5954 18.4999C36.5954 16.3608 34.6298 14.453 31.0165 13.0655V13.0655ZM26.7384 4.24912C27.9235 4.94287 28.3282 7.08193 27.8368 10.1171C27.7501 10.7241 27.6056 11.3601 27.4321 12.0249C25.929 11.678 24.3392 11.4468 22.6626 11.3022C21.6798 9.91475 20.6681 8.67178 19.6563 7.54443C21.7954 5.43428 23.9634 3.98896 25.7267 3.98896C26.1024 3.98896 26.4493 4.07568 26.7384 4.24912V4.24912ZM23.5009 21.3905C22.9806 22.3155 22.3735 23.2405 21.7376 24.1655C20.6681 24.2522 19.5985 24.2812 18.5001 24.2812C17.3728 24.2812 16.3032 24.2522 15.2626 24.1655C14.6267 23.2405 14.0485 22.3155 13.5282 21.3905C12.979 20.4366 12.4587 19.4538 11.9962 18.4999C12.4587 17.546 12.979 16.5632 13.5282 15.6093C14.0485 14.6843 14.6556 13.7593 15.2915 12.8343C16.361 12.7476 17.4306 12.7187 18.529 12.7187C19.6563 12.7187 20.7259 12.7476 21.7665 12.8343C22.4024 13.7593 22.9806 14.6843 23.5009 15.6093C24.0501 16.5632 24.5704 17.546 25.0329 18.4999C24.5415 19.4538 24.0501 20.4077 23.5009 21.3905ZM25.9001 20.4366C26.3337 21.4483 26.6806 22.4312 26.9985 23.414C26.0157 23.6452 24.9751 23.8187 23.8767 23.9632C24.2235 23.414 24.5993 22.8358 24.9173 22.2288C25.2642 21.6218 25.5821 21.0147 25.9001 20.4366ZM18.5001 28.2702C17.8063 27.5187 17.1415 26.7093 16.5056 25.871C17.1704 25.8999 17.8353 25.9288 18.5001 25.9288C19.1649 25.9288 19.8298 25.8999 20.4946 25.871C19.8587 26.7093 19.1938 27.5187 18.5001 28.2702ZM13.1235 23.9343C12.0251 23.7897 10.9845 23.6163 10.0017 23.3851C10.3196 22.4312 10.6665 21.4194 11.1001 20.4077C11.4181 20.9858 11.736 21.5929 12.0829 22.171C12.4298 22.8069 12.7767 23.3562 13.1235 23.9343V23.9343ZM11.1001 16.5632C10.6665 15.5515 10.3196 14.5687 10.0017 13.5858C10.9845 13.3546 12.0251 13.1812 13.1235 13.0366C12.7767 13.5858 12.4009 14.164 12.0829 14.771C11.736 15.378 11.4181 15.9851 11.1001 16.5632V16.5632ZM18.5001 8.72959C19.1938 9.48115 19.8587 10.2905 20.4946 11.1288C19.8298 11.0999 19.1649 11.071 18.5001 11.071C17.8353 11.071 17.1704 11.0999 16.5056 11.1288C17.1415 10.2905 17.8063 9.48115 18.5001 8.72959ZM24.9173 14.7999L23.8767 13.0655C24.9751 13.2101 26.0157 13.3835 26.9985 13.6147C26.6806 14.5687 26.3337 15.5804 25.9001 16.5921C25.5821 15.9851 25.2642 15.378 24.9173 14.7999ZM9.16338 10.1171C8.67197 7.08193 9.07666 4.94287 10.2618 4.24912C10.5509 4.07568 10.8978 3.98896 11.2735 3.98896C13.0079 3.98896 15.1759 5.40537 17.3438 7.54443C16.3321 8.64287 15.3204 9.91475 14.3376 11.3022C12.661 11.4468 11.0712 11.7069 9.56807 12.0249C9.39463 11.3601 9.279 10.7241 9.16338 10.1171V10.1171ZM2.02354 18.4999C2.02354 17.1413 3.67119 15.696 6.56182 14.6265C7.13994 14.3952 7.77588 14.1929 8.41182 14.0194C8.87432 15.4647 9.45244 16.9968 10.1462 18.5288C9.45244 20.0608 8.84541 21.564 8.41182 23.0093C4.42275 21.853 2.02354 20.1187 2.02354 18.4999ZM10.2618 32.7507C9.07666 32.0569 8.67197 29.9179 9.16338 26.8827C9.2501 26.2757 9.39463 25.6397 9.56807 24.9749C11.0712 25.3218 12.661 25.553 14.3376 25.6976C15.3204 27.0851 16.3321 28.328 17.3438 29.4554C15.2048 31.5655 13.0368 33.0108 11.2735 33.0108C10.8978 33.0108 10.5509 32.9241 10.2618 32.7507ZM27.8368 26.8827C28.3282 29.9179 27.9235 32.0569 26.7384 32.7507C26.4493 32.9241 26.1024 33.0108 25.7267 33.0108C23.9923 33.0108 21.8243 31.5944 19.6563 29.4554C20.6681 28.3569 21.6798 27.0851 22.6626 25.6976C24.3392 25.553 25.929 25.2929 27.4321 24.9749C27.6056 25.6397 27.7212 26.2757 27.8368 26.8827V26.8827ZM30.4384 22.3733C29.8603 22.6046 29.2243 22.8069 28.5884 22.9804C28.1259 21.5351 27.5478 20.003 26.854 18.471C27.5478 16.939 28.1548 15.4358 28.5884 13.9905C32.5774 15.1468 34.9767 16.8812 34.9767 18.4999C34.9767 19.8585 33.3001 21.3038 30.4384 22.3733Z" fill="#61DAFB"/>
</svg>
