<svg width="67" height="67" viewBox="0 0 67 67" fill="none" xmlns="http://www.w3.org/2000/svg">
<path fill-rule="evenodd" clip-rule="evenodd" d="M33.5848 6.94114C34.1976 7.96479 34.0921 9.26471 33.3223 10.1762C29.997 14.1139 27.9951 19.1972 27.9951 24.7553C27.9951 37.2428 38.1182 47.3659 50.6057 47.3659C52.2284 47.3659 53.8083 47.1954 55.3294 46.8723C56.4964 46.6244 57.6919 47.1456 58.3047 48.1692C58.9175 49.1929 58.812 50.4928 58.0423 51.4043C52.8748 57.5232 45.1373 61.4167 36.4932 61.4167C20.9222 61.4167 8.29932 48.7938 8.29932 33.2227C8.29932 19.6671 17.8632 8.35166 30.6095 5.64425C31.7765 5.39637 32.972 5.91749 33.5848 6.94114ZM24.5212 14.0374C18.1321 18.0333 13.8826 25.1336 13.8826 33.2227C13.8826 45.7102 24.0058 55.8333 36.4932 55.8333C40.6105 55.8333 44.47 54.7341 47.7954 52.811C33.5437 51.4006 22.4117 39.378 22.4117 24.7553C22.4117 20.9623 23.1618 17.3423 24.5212 14.0374Z" fill="white"/>
</svg>
