<svg width="67" height="67" viewBox="0 0 67 67" fill="none" xmlns="http://www.w3.org/2000/svg">
<path fill-rule="evenodd" clip-rule="evenodd" d="M33.4999 5.58337C35.0417 5.58337 36.2916 6.83325 36.2916 8.37504V13.9584C36.2916 15.5002 35.0417 16.75 33.4999 16.75C31.9581 16.75 30.7083 15.5002 30.7083 13.9584V8.37504C30.7083 6.83325 31.9581 5.58337 33.4999 5.58337ZM53.24 13.76C54.3302 14.8502 54.3302 16.6178 53.24 17.708L49.292 21.656C48.2018 22.7462 46.4342 22.7462 45.344 21.656C44.2537 20.5658 44.2537 18.7982 45.344 17.708L49.292 13.76C50.3822 12.6698 52.1498 12.6698 53.24 13.76ZM13.7599 13.76C14.8501 12.6698 16.6177 12.6698 17.7079 13.76L21.6559 17.708C22.7461 18.7982 22.7461 20.5658 21.6559 21.656C20.5657 22.7462 18.7981 22.7462 17.7079 21.656L13.7599 17.708C12.6696 16.6178 12.6696 14.8502 13.7599 13.76ZM33.4999 26.5209C29.6454 26.5209 26.5208 29.6456 26.5208 33.5C26.5208 37.3545 29.6454 40.4792 33.4999 40.4792C37.3544 40.4792 40.4791 37.3545 40.4791 33.5C40.4791 29.6456 37.3544 26.5209 33.4999 26.5209ZM20.9374 33.5C20.9374 26.562 26.5618 20.9375 33.4999 20.9375C40.438 20.9375 46.0624 26.562 46.0624 33.5C46.0624 40.4381 40.438 46.0625 33.4999 46.0625C26.5618 46.0625 20.9374 40.4381 20.9374 33.5ZM5.58325 33.5C5.58325 31.9582 6.83312 30.7084 8.37492 30.7084H13.9583C15.5 30.7084 16.7499 31.9582 16.7499 33.5C16.7499 35.0418 15.5 36.2917 13.9583 36.2917H8.37492C6.83312 36.2917 5.58325 35.0418 5.58325 33.5ZM50.2499 33.5C50.2499 31.9582 51.4998 30.7084 53.0416 30.7084H58.6249C60.1667 30.7084 61.4166 31.9582 61.4166 33.5C61.4166 35.0418 60.1667 36.2917 58.6249 36.2917H53.0416C51.4998 36.2917 50.2499 35.0418 50.2499 33.5ZM21.6559 45.3441C22.7461 46.4343 22.7461 48.2019 21.6559 49.2921L17.7079 53.2401C16.6177 54.3303 14.8501 54.3303 13.7599 53.2401C12.6696 52.1499 12.6696 50.3823 13.7599 49.2921L17.7079 45.3441C18.7981 44.2539 20.5657 44.2539 21.6559 45.3441ZM45.344 45.3441C46.4342 44.2539 48.2018 44.2539 49.292 45.3441L53.24 49.2921C54.3302 50.3823 54.3302 52.1499 53.24 53.2401C52.1498 54.3303 50.3822 54.3303 49.292 53.2401L45.344 49.2921C44.2537 48.2019 44.2537 46.4343 45.344 45.3441ZM33.4999 50.25C35.0417 50.25 36.2916 51.4999 36.2916 53.0417V58.625C36.2916 60.1668 35.0417 61.4167 33.4999 61.4167C31.9581 61.4167 30.7083 60.1668 30.7083 58.625V53.0417C30.7083 51.4999 31.9581 50.25 33.4999 50.25Z" fill="white"/>
</svg>
