<svg width="62" height="62" viewBox="0 0 62 62" fill="none" xmlns="http://www.w3.org/2000/svg">
<g clip-path="url(#clip0_29_107)">
<path fill-rule="evenodd" clip-rule="evenodd" d="M31.0007 1.29175C23.6414 1.29557 16.5234 3.9021 10.9195 8.64527C5.31554 13.3884 1.59113 19.9589 0.412208 27.1819C-0.766719 34.4049 0.676695 41.8093 4.48438 48.0712C8.29207 54.3331 14.2157 59.0441 21.1961 61.3619C22.7361 61.6478 23.3162 60.6933 23.3162 59.8817C23.3162 59.0702 23.2854 56.7172 23.2751 54.1447C14.6512 56.0077 12.8288 50.5055 12.8288 50.5055C11.4223 46.9326 9.38953 45.9935 9.38953 45.9935C6.57648 44.0845 9.60001 44.1203 9.60001 44.1203C12.7159 44.3397 14.3535 47.3001 14.3535 47.3001C17.1152 52.0112 21.6068 50.6484 23.3726 49.8522C23.6498 47.8565 24.4558 46.4988 25.3438 45.7281C18.4549 44.9522 11.217 42.3083 11.217 30.4974C11.1743 27.4343 12.3174 24.4721 14.4099 22.2237C14.0916 21.4479 13.029 18.3139 14.7128 14.0571C14.7128 14.0571 17.3154 13.2302 23.2392 17.2166C28.3203 15.8349 33.6812 15.8349 38.7623 17.2166C44.681 13.2302 47.2784 14.0571 47.2784 14.0571C48.9673 18.3037 47.9047 21.4376 47.5864 22.2237C49.6855 24.4725 50.8311 27.4399 50.7845 30.5076C50.7845 42.344 43.5311 44.9522 36.632 45.7128C37.7407 46.6723 38.7315 48.5455 38.7315 51.4242C38.7315 55.5484 38.6955 58.866 38.6955 59.8817C38.6955 60.7035 39.2551 61.6631 40.8259 61.3619C47.8071 59.0439 53.7313 54.332 57.5389 48.069C61.3466 41.8061 62.7892 34.4005 61.6089 27.1769C60.4287 19.9532 56.7024 13.3827 51.0966 8.64031C45.4909 3.89796 38.3712 1.29315 31.011 1.29175H31.0007Z" fill="white"/>
<path d="M20.7387 51.6028C20.7387 51.8529 20.4512 52.0673 20.0816 52.0724C19.712 52.0775 19.4092 51.8733 19.4092 51.6232C19.4092 51.3731 19.6966 51.1588 20.0662 51.1537C20.4358 51.1486 20.7387 51.3476 20.7387 51.6028Z" fill="white"/>
<path d="M23.0999 51.2098C23.1461 51.4599 22.8894 51.7202 22.5198 51.7814C22.1502 51.8427 21.8268 51.6947 21.7806 51.4497C21.7344 51.2047 22.0013 50.9393 22.3607 50.8729C22.72 50.8066 23.0537 50.9597 23.0999 51.2098Z" fill="white"/>
<path d="M18.2025 51.4293C18.1255 51.6692 17.7765 51.7763 17.4274 51.6743C17.0783 51.5722 16.8473 51.2863 16.9141 51.0413C16.9808 50.7964 17.335 50.6841 17.6892 50.7964C18.0434 50.9086 18.2693 51.1792 18.2025 51.4293Z" fill="white"/>
<path d="M15.8773 50.4288C15.7079 50.6177 15.3639 50.5666 15.0816 50.3114C14.7993 50.0562 14.7325 49.7091 14.9019 49.5254C15.0713 49.3416 15.4153 49.3927 15.7079 49.6428C16.0005 49.8929 16.0569 50.2451 15.8773 50.4288V50.4288Z" fill="white"/>
<path d="M14.2192 48.7139C14.0293 48.8466 13.7059 48.7139 13.5262 48.4485C13.4766 48.4009 13.4371 48.3438 13.4101 48.2807C13.3831 48.2175 13.3691 48.1496 13.3691 48.081C13.3691 48.0124 13.3831 47.9445 13.4101 47.8814C13.4371 47.8182 13.4766 47.7611 13.5262 47.7135C13.7162 47.5859 14.0396 47.7135 14.2192 47.9738C14.3989 48.2341 14.404 48.5812 14.2192 48.7139V48.7139Z" fill="white"/>
<path d="M12.9975 46.9428C12.8912 46.996 12.7696 47.0109 12.6535 46.9848C12.5373 46.9588 12.434 46.8934 12.361 46.7999C12.1608 46.5855 12.1197 46.2894 12.2737 46.1567C12.4277 46.024 12.7049 46.0853 12.9051 46.2997C13.1053 46.514 13.1515 46.8101 12.9975 46.9428Z" fill="white"/>
<path d="M11.7398 45.5494C11.673 45.7025 11.4267 45.7484 11.2265 45.6413C11.0263 45.5341 10.8774 45.335 10.9493 45.1768C11.0211 45.0186 11.2624 44.9777 11.4626 45.0849C11.6628 45.1921 11.8168 45.3963 11.7398 45.5494Z" fill="white"/>
</g>
<defs>
<clipPath id="clip0_29_107">
<rect width="62" height="62" fill="white"/>
</clipPath>
</defs>
</svg>
