<svg width="62" height="62" viewBox="0 0 62 62" fill="none" xmlns="http://www.w3.org/2000/svg">
<g clip-path="url(#clip0_29_106)">
<path d="M57.4105 0H4.57734C2.04648 0 0 1.99805 0 4.46836V57.5195C0 59.9898 2.04648 62 4.57734 62H57.4105C59.9414 62 62 59.9898 62 57.5316V4.46836C62 1.99805 59.9414 0 57.4105 0ZM18.3941 52.8332H9.19102V23.2379H18.3941V52.8332ZM13.7926 19.2055C10.8379 19.2055 8.45234 16.8199 8.45234 13.8773C8.45234 10.9348 10.8379 8.54922 13.7926 8.54922C16.7352 8.54922 19.1207 10.9348 19.1207 13.8773C19.1207 16.8078 16.7352 19.2055 13.7926 19.2055ZM52.8332 52.8332H43.6422V38.4473C43.6422 35.0203 43.5816 30.6004 38.859 30.6004C34.0758 30.6004 33.3492 34.3422 33.3492 38.2051V52.8332H24.1703V23.2379H32.9859V27.2824H33.107C34.3301 24.9574 37.3332 22.4992 41.8016 22.4992C51.1137 22.4992 52.8332 28.6266 52.8332 36.5945V52.8332V52.8332Z" fill="white"/>
</g>
<defs>
<clipPath id="clip0_29_106">
<rect width="62" height="62" fill="white"/>
</clipPath>
</defs>
</svg>
